<?xml version="1.0" encoding="iso-8859-1"?>
<!-- Uploaded to: SVG Repo, www.svgrepo.com, Generator: SVG Repo Mixer Tools -->
<!DOCTYPE svg PUBLIC "-//W3C//DTD SVG 1.1//EN" "http://www.w3.org/Graphics/SVG/1.1/DTD/svg11.dtd">
<svg fill="#000000" height="800px" width="800px" version="1.1" id="Capa_1" xmlns="http://www.w3.org/2000/svg" xmlns:xlink="http://www.w3.org/1999/xlink" 
	 viewBox="0 0 430 430" xml:space="preserve">
<path d="M323.424,130.113c-4.114,0-8.213,0.234-12.277,0.703c-4.899-20.225-15.654-38.647-31.178-53.025
	c-19.752-18.294-45.464-28.369-72.4-28.369c-49.559,0-91.801,33.842-103.422,80.719C46.495,131.434,0,178.734,0,236.689
	c0,58.77,47.81,106.58,106.577,106.58h30.665c5.866,6.895,12.627,13.058,20.181,18.329c17.792,12.417,38.675,18.979,60.39,18.979
	c23.057,0,44.977-7.297,63.389-21.099c6.32-4.736,12.072-10.199,17.17-16.21h25.053c58.766,0,106.576-47.81,106.576-106.58
	C430,177.924,382.189,130.113,323.424,130.113z M299.768,300.12c-5.28,17.145-16.132,32.543-30.56,43.355
	c-14.919,11.184-32.693,17.103-51.396,17.103c-36.361,0-67.505-22.757-79.952-54.771l-17.771,3.051
	c-0.49,0.081-0.975,0.123-1.457,0.123c-2.932,0-5.704-1.495-7.301-4.034c-1.863-2.952-1.762-6.731,0.256-9.582l25.922-36.642
	c1.322-1.867,3.33-3.127,5.588-3.516c2.25-0.39,4.574,0.133,6.441,1.459l36.638,25.921c2.849,2.014,4.204,5.555,3.428,8.949
	c-0.771,3.414-3.518,6.019-6.956,6.601l-15.869,2.722c9.5,18.546,28.802,31.28,51.034,31.28c25.322,0,47.332-16.238,54.779-40.401
	c2.314-7.504,10.271-11.71,17.777-9.397C297.873,284.656,302.08,292.615,299.768,300.12z M318.418,234.91l-25.923,36.642
	c-1.327,1.867-3.336,3.127-5.592,3.516c-0.479,0.083-0.97,0.123-1.457,0.123c-1.769,0-3.513-0.539-4.984-1.581l-36.632-25.922
	c-2.851-2.016-4.205-5.555-3.438-8.959c0.774-3.395,3.521-6,6.965-6.591l15.86-2.722c-9.497-18.546-28.798-31.279-51.035-31.279
	c-25.313,0-47.327,16.229-54.779,40.4c-2.314,7.503-10.266,11.71-17.771,9.396c-7.504-2.314-11.713-10.273-9.401-17.776
	c5.283-17.146,16.14-32.537,30.558-43.355c14.928-11.186,32.699-17.105,51.395-17.105c36.366,0,67.505,22.757,79.953,54.771
	l17.775-3.051c3.44-0.581,6.896,0.957,8.757,3.91C320.532,228.28,320.432,232.06,318.418,234.91z"/>
</svg>